<svg width="10" height="12" viewBox="0 0 10 12" fill="none" xmlns="http://www.w3.org/2000/svg">
<path d="M3.69038 11.4985H1.22108C0.796915 11.4985 0.642674 11.452 0.487004 11.365C0.331334 11.2781 0.20994 11.1506 0.127107 10.9872C0.0442732 10.8237 0 10.6633 0 10.2165V4.99836L5 0.5L10 4.99986V10.218C10 10.6633 9.95573 10.8252 9.8729 10.9887C9.79006 11.1521 9.66867 11.2796 9.513 11.3665C9.35733 11.4535 9.20451 11.5 8.77892 11.5H6.31106V8.63904C6.31106 8.41562 6.28963 8.33465 6.24679 8.25368C6.20537 8.17271 6.14396 8.10823 6.06684 8.06475C5.98972 8.02126 5.9126 7.99727 5.6998 7.99727H4.30163C4.08883 7.99727 4.01171 8.01976 3.93459 8.06475C3.85747 8.10823 3.79606 8.17271 3.75464 8.25368C3.71323 8.33465 3.69038 8.41562 3.69038 8.63904V11.4985Z" fill="#C3C7CB"/>
</svg>
